<?xml version="1.0" encoding="utf-8"?>
<!-- Generator: Adobe Illustrator 21.1.0, SVG Export Plug-In . SVG Version: 6.00 Build 0)  -->
<svg width="300px" height="20px" version="1.1" id="Layer_1" xmlns="http://www.w3.org/2000/svg" xmlns:xlink="http://www.w3.org/1999/xlink" x="0px" y="0px"
	 viewBox="12.672 272.704663212 739.728 49.1502590674" style="enable-background:new 0 0 792 612;" xml:space="preserve">
<g>
	<path d="M19.4,279.6h3.5v14.9h18.8v-14.9h3.5V314h-3.5v-16.3H22.9V314h-3.5V279.6z"/>
	<path d="M63.1,314H59l15-34.4h3.4l15,34.4h-4.1l-3.8-9H66.9L63.1,314z M68.2,301.8h14.9l-7.4-18.1L68.2,301.8z"/>
	<path d="M131.1,308.8L131.1,308.8l0.1-29.2h3.5V314h-4.4l-20.5-29.5h-0.1V314h-3.5v-34.4h4.4L131.1,308.8z"/>
	<path d="M152.7,279.6h11.4c8.6,0,18.1,5.7,18.1,17.2c0,11.5-9.5,17.2-18.1,17.2h-11.4V279.6z M156.2,310.8h6.8
		c10.5,0,15.4-6.9,15.4-14c0-7.1-4.9-14-15.4-14h-6.8V310.8z"/>
	<path d="M201.9,310.8h18.4v3.2h-21.9v-34.4h21.3v3.2h-17.8v11.7h16.7v3.2h-16.7V310.8z"/>
	<path d="M239.9,310.8h16v3.2h-19.5v-34.4h3.5V310.8z"/>
	<path d="M292,314h-4.1l15-34.4h3.4l15,34.4h-4.1l-3.8-9h-17.6L292,314z M297.1,301.8H312l-7.4-18.1L297.1,301.8z"/>
	<path d="M338.6,314h-3.5v-34.4h10.6c7,0,11.3,3,11.3,9.2c0,4.8-3.2,8.4-8.8,8.9l9.9,16.3h-4.3l-9.4-16h-5.8V314z M338.6,294.9h6.2
		c6.3,0,8.4-2.7,8.4-6c0-3.3-2.1-6-8.4-6h-6.2V294.9z"/>
	<path d="M401.5,308.6c-2.3,3.5-7,6.3-12.7,6.3c-10.3,0-17.9-7.6-17.9-18.1c0-10.4,7.7-18.1,17.9-18.1c4.3,0,8.9,1.6,11.9,5.4
		l-3.1,2.3c-1.4-2.2-5.2-4.5-8.8-4.5c-8.8,0-14.1,6.9-14.1,14.9c0,7.9,5.3,14.9,14.1,14.9c3.6,0,7.3-1.2,9.9-5.2L401.5,308.6z"/>
	<path d="M416.5,279.6h3.5v14.9h18.8v-14.9h3.5V314h-3.5v-16.3H420V314h-3.5V279.6z"/>
	<path d="M464.3,314h-3.5v-34.4h3.5V314z"/>
	<path d="M493.9,314h-3.5v-31.2h-11.5v-3.2h26.5v3.2h-11.5V314z"/>
	<path d="M523.4,310.8h18.4v3.2h-21.9v-34.4h21.3v3.2h-17.8v11.7h16.7v3.2h-16.7V310.8z"/>
	<path d="M586.2,308.6c-2.3,3.5-7,6.3-12.7,6.3c-10.3,0-17.9-7.6-17.9-18.1c0-10.4,7.7-18.1,17.9-18.1c4.3,0,8.9,1.6,11.9,5.4
		l-3.1,2.3c-1.4-2.2-5.2-4.5-8.8-4.5c-8.8,0-14.1,6.9-14.1,14.9c0,7.9,5.3,14.9,14.1,14.9c3.6,0,7.3-1.2,9.9-5.2L586.2,308.6z"/>
	<path d="M612.3,314h-3.5v-31.2h-11.5v-3.2h26.5v3.2h-11.5V314z"/>
	<path d="M654.7,285.3c-1.5-2.2-3.7-3.4-6.7-3.4c-3.6,0-7.3,1.9-7.3,6.2c0,9.3,17.6,4.4,17.6,16.8c0,6.3-5.9,10-11.3,10
		c-4.2,0-8.2-1.5-10.8-5.1l3.2-2.3c1.5,2.5,4.2,4.2,7.8,4.2c3.5,0,7.4-2.2,7.4-6.3c0-9.7-17.6-4.3-17.6-16.9c0-6.7,5.5-9.8,11.1-9.8
		c3.9,0,7,1.1,9.7,4.2L654.7,285.3z"/>
	<path d="M697.2,312.3h8.9v1.8h-10.9v-19.1h1.9V312.3z"/>
	<path d="M715.8,312.3h8.9v1.8h-10.9v-19.1h1.9V312.3z"/>
	<path d="M732.4,294.9h5.6c3.9,0,6.3,1.7,6.3,5.1c0,3.4-2.4,5.1-6.3,5.1h-3.6v8.9h-1.9V294.9z M734.4,303.4h3.1
		c3.5,0,4.7-1.5,4.7-3.3c0-1.8-1.2-3.3-4.7-3.3h-3.1V303.4z"/>
</g>
</svg>
